<svg width="40" height="40" viewBox="0 0 40 40" fill="none" xmlns="http://www.w3.org/2000/svg">
<path d="M39.2 20.4444C39.2 18.8 39.0665 17.6 38.7778 16.3555H20V23.7777H31.0221C30.8 25.6222 29.6 28.4 26.9333 30.2665L26.8959 30.515L32.8331 35.1145L33.2444 35.1555C37.0221 31.6666 39.2 26.5332 39.2 20.4444Z" fill="#4285F4"/>
<path d="M20 40C25.3999 40 29.9332 38.2221 33.2444 35.1556L26.9333 30.2666C25.2444 31.4443 22.9777 32.2666 20 32.2666C14.7111 32.2666 10.2223 28.7778 8.62212 23.9556L8.38758 23.9755L2.21401 28.7533L2.13327 28.9777C5.42213 35.511 12.1777 40 20 40Z" fill="#34A853"/>
<path d="M8.62214 23.9556C8.19992 22.7112 7.95557 21.3777 7.95557 20C7.95557 18.6221 8.19992 17.2889 8.59992 16.0444L8.58874 15.7794L2.3378 10.9249L2.13328 11.0221C0.777786 13.7333 0 16.7778 0 20C0 23.2222 0.777786 26.2666 2.13328 28.9777L8.62214 23.9556Z" fill="#FBBC05"/>
<path d="M20 7.73328C23.7555 7.73328 26.2888 9.3555 27.7333 10.7111L33.3777 5.2C29.9111 1.97779 25.3999 0 20 0C12.1777 0 5.42213 4.48885 2.13327 11.0221L8.59991 16.0444C10.2223 11.2222 14.7111 7.73328 20 7.73328Z" fill="#EB4335"/>
</svg>
