<svg width="847" height="490" viewBox="0 0 847 490" fill="none" xmlns="http://www.w3.org/2000/svg">
<path fill-rule="evenodd" clip-rule="evenodd" d="M785.584 462.43L784.38 461.312C784.172 461.119 784.166 460.792 784.367 460.592L785.611 459.348C785.798 459.16 785.904 458.906 785.904 458.641V431.31C785.904 420.294 811.193 417.574 813.096 431.31V458.777C813.096 459.042 813.202 459.296 813.389 459.484L814.622 460.717C814.827 460.922 814.816 461.256 814.598 461.447L813.302 462.582C813.085 462.772 812.961 463.046 812.961 463.335V471.033C812.961 471.375 812.373 471.49 812.204 471.193C810.633 468.445 808.192 467.969 807.114 467.899C806.821 467.88 806.57 467.642 806.57 467.349V463.292C806.57 463.029 806.466 462.776 806.281 462.589L805.14 461.435C804.951 461.245 804.946 460.94 805.129 460.744L806.296 459.486C806.472 459.296 806.568 459.047 806.563 458.789L806.37 447.255L792.585 474.35L792.58 474.927C792.57 475.856 792.442 476.781 792.197 477.679C792.191 477.703 792.227 477.72 792.242 477.7C792.574 477.235 793.877 475.642 795.851 476.017C796.142 476.072 796.109 476.479 795.845 476.612C794.164 477.452 794.469 479.591 794.469 479.591C794.469 479.591 795.013 482.993 801.675 482.991C802.766 482.991 809.833 482.99 809.833 476.871C809.849 476.671 809.846 476.491 809.829 476.33C809.681 474.965 807.753 475.894 808.438 477.084C808.492 477.177 808.411 477.186 808.308 477.198C808.273 477.201 808.236 477.206 808.201 477.213C807.425 477.382 805.17 477.663 803.75 475.664C802.721 474.215 802.464 472.05 803.69 470.763C803.954 470.485 804.253 470.262 804.556 470.083C805.786 469.358 807.322 469.346 808.648 469.877C809.307 470.14 810.041 470.547 810.723 471.173C813.156 473.409 813.954 477.216 813.096 480.407C809.955 492.095 791.372 490.892 786.745 482.593C785.985 481.229 785.904 479.619 785.904 478.058V463.163C785.904 462.885 785.788 462.619 785.584 462.43ZM792.75 457.655L806.085 433.744C805.005 426.296 792.974 426.669 792.974 434.982L792.75 457.655Z" fill="white"/>
<path d="M774.762 458.184V428.396C774.762 428.396 774.51 425.928 769.319 425.457C769.221 425.448 769.191 425.318 769.276 425.271C773.643 422.827 776.795 425.234 777.382 425.739C777.433 425.783 777.513 425.77 777.548 425.713C777.866 425.21 779.309 423.268 782.158 424.296C782.254 424.33 782.237 424.469 782.137 424.489C780.333 424.836 780.333 425.828 780.333 425.828V458.214C780.333 458.353 780.391 458.485 780.491 458.579L782.887 460.825C782.949 460.883 782.95 460.981 782.89 461.041L780.645 463.286C780.552 463.379 780.499 463.505 780.498 463.636L780.333 485.312C780.333 485.312 780.588 486.399 782.025 486.824C782.129 486.855 782.129 487.016 782.022 487.037C779.06 487.604 778.208 486.039 778.005 485.493C777.977 485.417 777.873 485.388 777.813 485.442C777.144 486.048 774.058 488.476 769.784 486.095C769.698 486.047 769.729 485.916 769.827 485.908C774.762 485.497 774.762 482.431 774.762 482.431L774.503 463.661C774.501 463.515 774.435 463.377 774.323 463.284L771.644 461.051C771.57 460.99 771.573 460.875 771.649 460.817L774.566 458.581C774.69 458.486 774.762 458.34 774.762 458.184Z" fill="white"/>
<path fill-rule="evenodd" clip-rule="evenodd" d="M739.098 431.137C744.498 420.25 759.872 421.706 763.087 430.928C763.443 431.948 763.5 433.043 763.5 434.123V457.766C763.5 457.914 763.566 458.055 763.68 458.15L766.362 460.385C766.434 460.445 766.434 460.555 766.362 460.615L763.68 462.85C763.566 462.945 763.5 463.086 763.5 463.234V478.5C763.5 478.5 763.5 487.5 750.5 487.5C745.628 487.5 743.502 484.361 743.08 483.645C743.042 483.579 742.947 483.573 742.9 483.633C742.303 484.393 739.07 488.079 734.247 485.63C734.164 485.588 734.181 485.462 734.271 485.439C738.982 484.262 738.5 478 738.5 478L738.5 465C738.5 465 738.5 462.5 741.5 462C747 461 747 467 747 467C747 467 746.514 470.89 743.143 469.559C743.077 469.533 743 469.581 743 469.653C743.024 475.576 744.418 480 750.5 480C758 480 758 473 758 473V459.85C758 459.749 757.841 459.69 757.767 459.759C757.185 460.3 755.346 461.5 750.5 461.5C747.343 461.5 744.999 459.872 744.57 459.554C744.53 459.523 744.475 459.525 744.437 459.559C743.915 460.038 740.177 463.186 734.746 460.62C734.662 460.58 734.673 460.454 734.762 460.427C738.5 459.279 738.5 454.5 738.5 454.5V433.985C738.5 433.004 738.661 432.016 739.098 431.137ZM744.5 437C744.5 428.5 757.5 428.5 758 434C758 434 758 437.321 753.379 436.569C753.277 436.552 753.215 436.68 753.296 436.744C756.585 439.359 758 437 758 437V451C758 458.5 744.5 458 744.5 451V437Z" fill="white"/>
<path d="M724.262 457.753V427.965C724.262 427.965 724.01 425.497 718.819 425.026C718.721 425.017 718.691 424.888 718.776 424.84C723.143 422.396 726.295 424.803 726.882 425.308C726.933 425.352 727.013 425.339 727.048 425.282C727.366 424.779 728.809 422.837 731.658 423.865C731.754 423.899 731.737 424.038 731.637 424.058C729.833 424.405 729.833 425.397 729.833 425.397V457.783C729.833 457.922 729.891 458.054 729.991 458.148L732.387 460.394C732.449 460.452 732.45 460.55 732.39 460.61L730.145 462.855C730.052 462.948 729.999 463.074 729.998 463.205L729.833 484.881C729.833 484.881 730.088 485.968 731.525 486.393C731.629 486.424 731.629 486.585 731.522 486.606C728.56 487.173 727.708 485.608 727.505 485.062C727.477 484.986 727.373 484.957 727.313 485.011C726.644 485.617 723.558 488.045 719.284 485.664C719.198 485.616 719.229 485.485 719.327 485.477C724.262 485.066 724.262 482 724.262 482L724.003 463.23C724.001 463.084 723.935 462.946 723.823 462.853L721.144 460.62C721.07 460.559 721.073 460.444 721.149 460.386L724.066 458.15C724.19 458.056 724.262 457.909 724.262 457.753Z" fill="white"/>
<path fill-rule="evenodd" clip-rule="evenodd" d="M673.41 460.982V444.603C673.41 444.603 674.099 436.697 687.527 436C698.89 436.697 699.578 446.461 699.578 446.461C699.578 446.461 700.267 454.132 690.282 456.572C679.608 459.711 681.674 464.592 681.674 464.592C681.674 464.592 685.806 461.803 686.15 465.987C686.15 468.776 681.674 467.382 681.674 467.382C680.633 467.118 679.789 466.495 679.439 466.206C679.371 466.15 679.264 466.199 679.264 466.287V477.458C679.264 477.55 679.418 477.579 679.455 477.495C679.89 476.512 681.105 474.4 683.5 474.458C683.726 474.463 683.833 474.729 683.706 474.917C680.087 480.276 684.613 482.652 687.113 483.507C688.06 483.831 689.065 483.924 690.055 483.776C692.47 483.416 697.01 482.083 697.513 477.145C697.827 473.958 696.991 473.392 695.267 473.585C694.988 473.616 694.806 473.888 694.84 474.167C695.397 478.696 689.937 475.967 689.937 472.263C689.937 467.382 694.069 468.079 694.069 468.079C694.069 468.079 701.644 468.079 700.956 477.493C699.578 487.257 692.692 488.651 687.183 489C680.069 489 676.32 485.592 674.61 483.319C673.684 482.088 673.41 480.537 673.41 478.997V465.106C673.41 464.961 673.348 464.824 673.239 464.729L671.152 462.911C671.076 462.845 671.085 462.725 671.17 462.671L673.177 461.405C673.322 461.314 673.41 461.154 673.41 460.982ZM680 459.643V451.44C680 450.793 680.043 450.149 680.205 449.523C680.777 447.314 682.728 442 688.273 442C693.682 442.314 694 445.764 694 446.391C693.823 450.916 690.904 452.351 687.579 453.985C684.996 455.254 682.169 456.643 680.192 459.694C680.137 459.779 680 459.744 680 459.643Z" fill="white"/>
<path fill-rule="evenodd" clip-rule="evenodd" d="M662.426 424.205C662.043 423.629 660.16 421.179 656.78 422.689C656.691 422.729 656.708 422.86 656.802 422.881C659.5 423.493 659.5 425.822 659.5 425.822V444.332C659.5 444.427 659.376 444.465 659.316 444.392C652.803 436.435 642.5 442.393 642.5 449.822V463.132C642.5 463.301 642.414 463.459 642.272 463.551L640.184 464.903C640.096 464.96 640.093 465.089 640.178 465.15L642.292 466.672C642.423 466.766 642.5 466.917 642.5 467.078V479.905C642.5 480.282 642.53 480.661 642.624 481.027C644.548 488.483 655.875 493.014 659.405 484.071C659.439 483.986 659.555 483.981 659.58 484.069C659.764 484.724 660.097 486.562 658.667 488.147C658.607 488.213 658.653 488.321 658.742 488.316C660.99 488.211 661.731 486.651 661.934 486.053C661.954 485.994 662.062 485.987 662.088 486.044C662.497 486.955 664.511 490.222 671.524 487.512C671.627 487.472 671.604 487.316 671.494 487.312C666.5 487.111 666.5 483.928 666.5 483.928V467.078C666.5 466.917 666.577 466.766 666.708 466.672L668.822 465.15C668.908 465.088 668.905 464.96 668.816 464.903L666.728 463.546C666.586 463.453 666.5 463.296 666.5 463.126V428.585C666.5 427.875 666.6 427.162 666.955 426.547C667.552 425.515 668.824 423.895 671.274 422.91C671.356 422.877 671.358 422.758 671.276 422.723C666.429 420.654 663.182 423.622 662.596 424.22C662.548 424.27 662.464 424.262 662.426 424.205ZM647 462.739V450.93C647 445.542 654.199 441.113 658.723 450.34C658.91 450.721 659 451.15 659 451.574V456.33C659 456.386 658.955 456.431 658.9 456.434C658.298 456.465 655.17 456.789 655.007 460.152C655.002 460.246 655.119 460.289 655.182 460.219C657.039 458.134 658.315 458.915 658.792 459.367C658.94 459.506 659 459.708 659 459.911V462.762C659 462.919 658.926 463.067 658.801 463.161L657.008 464.517C656.931 464.575 656.928 464.689 657.002 464.751L659 466.43L659 477.43C659 482.692 650.304 484.751 647.362 480.54C647.096 480.158 647 479.688 647 479.222L647 477.817C647 477.561 647.045 477.307 647.182 477.091C647.632 476.38 648.965 474.941 651.718 476.738C651.801 476.793 651.907 476.705 651.867 476.614C650.243 472.91 648.041 474.117 647.276 474.697C647.169 474.778 647 474.702 647 474.568V466.686C647 466.526 647.077 466.375 647.208 466.281L649.322 464.759C649.407 464.697 649.404 464.568 649.316 464.511L647.228 463.159C647.086 463.067 647 462.909 647 462.739Z" fill="white"/>
<path d="M629.404 456.3H626.271C626.271 456.3 619.5 455 619.5 447.5C618.909 441 625.614 440.646 625.614 440.646C625.614 440.646 631.5 440.646 631.5 446C631.5 449.344 629.264 451.793 627.783 453.049C627.409 453.366 627.608 453.997 628.096 453.951C630.891 453.687 636.412 452.301 636.813 445.485C635.843 435.175 624.86 436.017 624.86 436.017C624.86 436.017 617.215 436.017 614.415 441.487C609.5 450 615.5 455.48 615.5 455.48C619.5 459.69 621.307 461.372 621.307 461.372V464.261C621.307 464.537 621.53 464.761 621.807 464.761H624.632C624.673 464.761 624.711 464.768 624.748 464.785C625.25 465.016 629.158 466.897 630.804 470.441C631.543 472.032 631.958 473.786 632.841 475.302L633.655 476.697C633.667 476.719 633.633 476.745 633.616 476.727C632.808 475.796 629.43 472.239 626.098 473.684C625.86 473.788 625.898 474.12 626.14 474.213C629 475.315 629 477.5 629 477.5C629 477.5 629.704 480.865 623.5 480.5C615 480 616 473 616 473C616 473 615.073 470.218 619.022 465.547C619.195 465.343 619.041 465.03 618.775 465.059C612.782 465.727 610.65 470.559 609.9 473.574C609.504 475.165 609.562 476.827 610.044 478.394C611.22 482.217 614.778 489.205 625 488.5C639.5 487.5 640.792 473.5 638.5 468C636 462 629.704 459.69 629.704 459.69V456.6C629.704 456.434 629.569 456.3 629.404 456.3Z" fill="white"/>
<path fill-rule="evenodd" clip-rule="evenodd" d="M581.41 460.982V444.603C581.41 444.603 582.099 436.697 595.527 436C606.89 436.697 607.578 446.461 607.578 446.461C607.578 446.461 608.267 454.132 598.282 456.572C587.608 459.711 589.674 464.592 589.674 464.592C589.674 464.592 593.806 461.803 594.15 465.987C594.15 468.776 589.674 467.382 589.674 467.382C588.633 467.118 587.789 466.495 587.439 466.206C587.371 466.15 587.264 466.199 587.264 466.287V477.458C587.264 477.55 587.418 477.579 587.455 477.495C587.89 476.512 589.105 474.4 591.5 474.458C591.726 474.463 591.833 474.729 591.706 474.917C588.087 480.276 592.613 482.652 595.113 483.507C596.06 483.831 597.065 483.924 598.055 483.776C600.47 483.416 605.01 482.083 605.513 477.145C605.827 473.958 604.991 473.392 603.267 473.585C602.988 473.616 602.806 473.888 602.84 474.167C603.397 478.696 597.937 475.967 597.937 472.263C597.937 467.382 602.069 468.079 602.069 468.079C602.069 468.079 609.644 468.079 608.956 477.493C607.578 487.257 600.692 488.651 595.183 489C588.069 489 584.32 485.592 582.61 483.319C581.684 482.088 581.41 480.537 581.41 478.997V465.106C581.41 464.961 581.348 464.824 581.239 464.729L579.152 462.911C579.076 462.845 579.085 462.725 579.17 462.671L581.177 461.405C581.322 461.314 581.41 461.154 581.41 460.982ZM588 459.643V451.44C588 450.793 588.043 450.149 588.205 449.523C588.777 447.314 590.728 442 596.273 442C601.682 442.314 602 445.764 602 446.391C601.823 450.916 598.904 452.351 595.579 453.985C592.996 455.254 590.169 456.643 588.192 459.694C588.137 459.779 588 459.744 588 459.643Z" fill="white"/>
<path fill-rule="evenodd" clip-rule="evenodd" d="M569.426 423.883C569.043 423.307 567.16 420.857 563.78 422.367C563.691 422.407 563.708 422.538 563.802 422.559C566.5 423.171 566.5 425.5 566.5 425.5V444.01C566.5 444.105 566.376 444.143 566.316 444.07C559.803 436.113 549.5 442.071 549.5 449.5V462.81C549.5 462.979 549.414 463.137 549.272 463.229L547.184 464.581C547.096 464.638 547.093 464.767 547.178 464.828L549.292 466.35C549.423 466.444 549.5 466.595 549.5 466.756V479.583C549.5 479.96 549.53 480.339 549.624 480.705C551.548 488.161 562.875 492.692 566.405 483.749C566.439 483.664 566.555 483.659 566.58 483.747C566.764 484.402 567.097 486.24 565.667 487.825C565.607 487.891 565.653 487.999 565.742 487.994C567.99 487.889 568.731 486.329 568.934 485.731C568.954 485.672 569.062 485.665 569.088 485.722C569.497 486.633 571.511 489.9 578.524 487.19C578.627 487.15 578.604 486.994 578.494 486.99C573.5 486.789 573.5 483.606 573.5 483.606V466.756C573.5 466.595 573.577 466.444 573.708 466.35L575.822 464.828C575.908 464.766 575.905 464.638 575.816 464.581L573.728 463.224C573.586 463.131 573.5 462.974 573.5 462.804V428.263C573.5 427.553 573.6 426.84 573.955 426.225C574.552 425.193 575.824 423.573 578.274 422.588C578.356 422.555 578.358 422.436 578.276 422.401C573.429 420.332 570.182 423.3 569.596 423.898C569.548 423.948 569.464 423.94 569.426 423.883ZM554.5 462.809V451C554.5 445.611 561.699 441.183 566.223 450.41C566.41 450.791 566.5 451.219 566.5 451.644V456.4C566.5 456.455 566.455 456.5 566.4 456.503C565.798 456.535 562.67 456.859 562.507 460.222C562.502 460.315 562.619 460.359 562.682 460.289C564.539 458.203 565.815 458.984 566.292 459.436C566.44 459.576 566.5 459.777 566.5 459.981V462.832C566.5 462.989 566.426 463.137 566.301 463.231L564.508 464.587C564.431 464.645 564.428 464.759 564.502 464.821L566.5 466.5L566.5 477.5C566.5 482.762 557.804 484.82 554.862 480.61C554.596 480.228 554.5 479.758 554.5 479.292L554.5 477.886C554.5 477.631 554.545 477.376 554.682 477.161C555.132 476.45 556.465 475.011 559.218 476.808C559.301 476.862 559.407 476.775 559.367 476.684C557.743 472.98 555.541 474.187 554.776 474.767C554.669 474.848 554.5 474.771 554.5 474.638V466.756C554.5 466.595 554.577 466.444 554.708 466.35L556.822 464.828C556.907 464.767 556.904 464.638 556.816 464.581L554.728 463.229C554.586 463.137 554.5 462.979 554.5 462.809Z" fill="white"/>
<path d="M749 304C761 304 759.5 289.5 755 287.5C783.412 291.26 786.685 327.142 786.993 338.836C787.057 341.236 787.678 343.59 788.945 345.629L796.348 357.538C796.403 357.627 795.97 357.951 795.898 357.875C791.977 353.755 783.911 347.401 773.664 350.769C773.414 350.851 773.398 351.201 773.63 351.325C787.744 358.841 779 370.5 779 370.5C779 370.5 773.5 384.5 749.5 389C711.5 386.5 712.5 352 712.5 352C712.5 352 708.566 331.838 732.397 309.559C732.6 309.369 732.449 309.02 732.171 309.033C688 311.067 688 356.5 688 356.5C688 356.5 690.5 415.5 757.5 413.5C826.057 413.5 829.789 345.501 816.176 322.164C814.932 320.032 814.173 317.613 814.48 315.164L816.463 299.297C816.483 299.133 816.367 298.983 816.204 298.962L801 297C801 297 785 273.5 755 272.5C733.5 274 734.5 290.5 734.5 290.5C734.5 290.5 734 302.5 749 304Z" fill="white"/>
<path d="M723.571 273.071L730.212 279.713C730.355 279.856 730.599 279.812 730.696 279.635C738.711 265.024 754.499 267.471 760.805 269.154C761.153 269.247 761.475 268.582 761.184 268.37C753.261 262.598 727.611 242.226 725.5 219C723.568 191.479 774.322 173.283 789.067 206.282C790.146 208.699 790.799 211.319 790.932 213.963C791.995 235.02 772.356 245.949 767.215 248.442C766.799 248.644 766.849 249.273 767.294 249.4C802.85 259.518 837.352 198.676 784 172C760.371 161.636 729.868 170.52 720.131 173.859C718.021 174.582 716.095 175.707 714.015 176.512C709.898 178.106 702.467 179.142 697.878 168.885C697.758 168.618 697.354 168.652 697.296 168.939C693.467 187.693 707.5 193.5 707.5 193.5C707.5 193.5 690.847 224.492 705.148 248.213C706.261 250.059 706.904 252.182 706.73 254.33L705.542 268.977C705.519 269.262 705.738 269.508 706.024 269.517L716.159 269.855C718.948 269.948 721.597 271.098 723.571 273.071Z" fill="white"/>
<path d="M579.88 278.353L586.181 284.203C586.384 284.392 586.5 284.658 586.5 284.936V347.15C586.5 348.712 586.647 350.285 587.112 351.776C598.219 387.346 674.257 395.044 686.5 349.5C687.46 345.929 687.671 342.614 687.545 339.826C687.29 334.178 685.878 328.514 683.472 323.397C678.556 312.943 669.321 310.075 664.933 309.292C663.326 309.005 661.681 309.064 660.103 309.484C656.516 310.44 650.032 313.143 648.731 320.334C648.414 322.083 648.639 323.904 649.135 325.612C653.588 340.964 666.769 338.23 669.134 337.604C669.324 337.554 669.401 337.339 669.305 337.168C668.826 336.312 667.657 333.952 668.01 331.88C668.325 330.031 670.649 329.339 672.211 330.378C673.528 331.255 674.774 333.005 674.5 336.5C674.5 358.995 648.511 358.999 644.503 359H644.5C620 359.004 618 346.5 618 346.5C618 346.5 616.599 336.691 625.534 334.68C625.822 334.615 625.874 334.215 625.6 334.105C616.744 330.546 610.918 337.961 609.726 339.662C609.687 339.719 609.591 339.668 609.609 339.601L609.943 338.376C610.645 335.804 611 333.149 611 330.482V285.893C611 285.64 611.096 285.397 611.267 285.212L617.184 278.84C617.362 278.648 617.362 278.352 617.184 278.16L611.274 271.795C611.098 271.606 611.003 271.356 611.007 271.098L612.5 182.5C612.5 150.5 661 150.5 661 182L662.493 271.098C662.498 271.356 662.402 271.606 662.226 271.795L656.326 278.149C656.144 278.345 656.149 278.65 656.337 278.841L662.211 284.774C662.396 284.962 662.5 285.215 662.5 285.478V302.954C662.5 303.247 662.743 303.482 663.036 303.477C665.871 303.425 679.221 304.065 685.371 320.213C685.492 320.533 686 320.448 686 320.106V285.52C686 285.232 686.125 284.958 686.341 284.768L693.098 278.852C693.316 278.661 693.327 278.327 693.122 278.122L686.793 271.793C686.605 271.605 686.5 271.351 686.5 271.086V169C679.5 118.5 586.5 128.5 586.5 169V270.586C586.5 270.851 586.395 271.105 586.207 271.293L579.867 277.633C579.667 277.833 579.673 278.16 579.88 278.353Z" fill="white"/>
<path fill-rule="evenodd" clip-rule="evenodd" d="M469 199.964V320.546C469 320.835 468.876 321.109 468.659 321.299L461.436 327.618C461.206 327.819 461.209 328.178 461.442 328.376L468.648 334.504C468.871 334.694 469 334.973 469 335.266V430.773C469 431.587 468.896 432.403 468.535 433.132C467.364 435.5 463.617 440.807 453.387 441.456C453.102 441.474 452.994 441.848 453.232 442.008C464.996 449.925 474.86 444.947 477.378 443.408C477.68 443.223 477.97 443.026 478.262 442.829C478.382 442.747 478.503 442.664 478.626 442.583L482.65 439.9C483.27 439.487 484.121 439.854 484.255 440.586C485.307 446.339 490.041 465.96 506.128 469.593C507.686 469.945 509.322 469.974 510.901 469.733C524.696 467.624 523.981 456.974 523.035 452.492C522.753 451.155 522.051 449.94 520.98 449.092C515.378 444.659 510.964 449.444 509.26 451.822C508.717 452.581 508.376 453.457 508.239 454.381C508.048 455.665 507.898 457.603 508.369 459.127C508.427 459.317 508.295 459.522 508.096 459.536C494.49 460.527 494 436.5 494 436.5L494.5 345C522.5 384.5 568 354 568 329V220.181C568 219.399 567.859 218.586 567.592 217.851C546.794 160.491 493.5 197.5 493.5 197.5C493.5 197.5 491.597 190.362 502.644 190.013C502.927 190.004 503.046 189.639 502.821 189.468C491.762 181.093 485.203 189.809 483.79 192.019C483.627 192.273 483.283 192.345 483.038 192.17L479.412 189.58C477.474 188.196 475.425 186.953 473.121 186.351C468.816 185.225 460.8 184.189 451.43 188.097C451.155 188.212 451.214 188.616 451.508 188.667C467.899 191.52 468.942 198.414 468.998 199.606C469.002 199.691 469.002 199.775 469.001 199.859C469 199.894 469 199.929 469 199.964ZM486.281 240.446C488.957 243.613 497.999 253.709 505.508 254.932C505.686 254.961 505.793 254.751 505.68 254.611C497.473 244.431 500.219 231.457 501.5 227.047C501.803 226.002 502.251 224.987 502.775 224.034C517.861 196.579 542.5 213.298 542.5 230.5V307.325C542.5 310.396 543.244 313.421 544.669 316.141L548 322.5C543.738 316.107 534.753 316.617 532.194 316.906C531.993 316.929 531.958 317.202 532.139 317.29C533.952 318.175 539 321.078 539 326C539 340.668 513.181 352.946 495.675 318.416C494.882 316.852 494.5 315.091 494.5 313.338V257.27C494.5 255.457 494.007 253.679 493.075 252.125L486.132 240.553C486.08 240.467 486.217 240.37 486.281 240.446Z" fill="white"/>
<path d="M291.18 324.428V392.607C291.18 393.977 290.906 395.335 290.237 396.531C288.183 400.201 282.752 408.195 273.722 409.79C273.363 409.853 273.323 410.536 273.684 410.589C279.877 411.507 293.483 413.053 299.73 410.07C304 408 305.7 405 305.7 405C305.7 405 306.5 410 314.5 411.5C319.115 411.885 321.66 409.311 322.588 408.102C322.752 407.889 322.551 407.627 322.29 407.689C317.498 408.825 315.247 406.455 314.221 404.435C313.444 402.905 313.41 401.139 313.41 399.423V325.066C313.41 324.747 313.562 324.447 313.82 324.259L321.211 318.858C321.464 318.672 321.486 318.301 321.256 318.088L313.729 311.097C313.526 310.908 313.41 310.642 313.41 310.364V260L340.78 345.089V351.922C340.78 351.922 338.631 357.181 325.233 358.859C324.921 358.898 324.872 359.334 325.167 359.442C344.955 366.697 356.5 359 356.5 359L357.918 358.433C358.633 358.147 359.396 358 360.166 358C360.704 358 361.222 358.19 361.664 358.499C364.018 360.144 372.412 365.002 383.284 359.638C383.572 359.495 383.446 359.069 383.124 359.082C380.889 359.176 379.102 359.045 377.673 358.771C372.426 357.767 372.845 351.437 374.518 346.363L403 260V311.086C403 311.351 402.895 311.605 402.707 311.793L396.829 317.671C396.644 317.856 396.633 318.154 396.805 318.352L402.756 325.218C402.913 325.4 403 325.632 403 325.873V415.187C403 415.187 403 422.202 385.618 424.37C385.314 424.408 385.249 424.828 385.531 424.947C399.138 430.703 407.397 428.371 410.31 427.108C411.131 426.752 411.897 426.289 412.645 425.796C414.593 424.513 415.945 423.169 416.583 422.477C416.754 422.29 417.08 422.361 417.138 422.608C418.113 426.73 424.327 450.404 438.274 449.4H441.644C441.644 449.4 451.023 448.544 453.478 438.29C453.603 437.769 453.715 437.241 453.77 436.707C453.978 434.674 453.848 429.403 447 429C440.796 429 439.71 434.049 439.703 437.553C439.699 439.256 438.397 440.84 436.694 440.84C435.492 440.84 434.268 440.709 433.301 439.996C431.567 438.719 428.787 435.594 426.911 428.125C426.436 426.233 426.28 424.272 426.28 422.321V324.46C426.28 324.168 426.408 323.891 426.629 323.701L432.307 318.837C432.522 318.653 432.542 318.327 432.35 318.119L426.543 311.787C426.374 311.602 426.28 311.361 426.28 311.111V195.29C426.28 193.733 426.883 192.2 428.262 191.479C429.943 190.599 432.66 189.76 436.281 190.53C436.612 190.6 436.835 190.139 436.556 189.948C427.379 183.632 421.273 186.614 418.861 188.42C418.068 189.013 417.131 189.45 416.141 189.45C414.958 189.45 413.806 189.096 412.75 188.562C408.538 186.433 396.273 181.755 380.677 189.403C380.391 189.543 380.497 189.977 380.815 189.977C391.672 189.968 394.766 194.584 395.648 197.216C396.033 198.364 395.817 199.588 395.457 200.743L358.29 320.07C358.202 320.352 357.802 320.351 357.716 320.069L319.293 193.963C319.101 193.331 319.056 192.647 319.381 192.072C320.108 190.785 322.129 188.688 327.458 189.343C327.677 189.37 327.784 189.071 327.592 188.961C318.602 183.829 312.622 186.41 310.006 188.226C308.972 188.944 307.778 189.5 306.52 189.5C305.528 189.5 304.566 189.212 303.683 188.76C299.79 186.767 287.653 181.9 272.488 189.021C272.212 189.151 272.284 189.566 272.587 189.6C279.674 190.375 284.628 193.413 287.63 195.957C290.205 198.139 291.18 201.507 291.18 204.882V311.069C291.18 311.344 291.067 311.607 290.866 311.796L284.983 317.349C284.775 317.545 284.774 317.876 284.981 318.074L290.871 323.705C291.068 323.893 291.18 324.154 291.18 324.428Z" fill="white"/>
<path d="M231.35 290.35L161.921 312.723C157.49 313.171 142.974 314.343 141.5 312.58C136.709 306.849 140.264 298.902 141.261 296.947C141.31 296.85 141.177 296.753 141.091 296.822C127.796 307.494 134.159 321.533 135.697 324.454C135.878 324.797 135.866 325.202 135.668 325.536C134.326 327.796 129.534 336.836 133 345.5C136 337.5 158.32 333.1 158.32 333.1L233.58 302.33C233.58 302.33 250.879 297.534 253.968 308.386C253.985 308.444 253.949 308.507 253.889 308.517C252.962 308.676 246.443 310.093 243.836 318.748C243.589 319.57 243.471 320.434 243.606 321.282C244.924 329.568 258.241 341.033 265.463 322.081C266.95 318.179 267.027 313.836 265.841 309.834C257.097 280.325 231.35 290.35 231.35 290.35Z" fill="white"/>
<path d="M198.902 260.501L171.113 401.927C171.038 402.308 170.995 402.696 171.062 403.079C171.279 404.319 172.256 407.149 176.656 407.47C176.937 407.491 177.051 407.826 176.811 407.975C175.092 409.042 170.264 411.363 163.56 409.021C163.521 409.007 163.483 408.992 163.447 408.972C163.082 408.78 160.939 407.591 159.836 405.686C159.655 405.374 159.212 405.282 158.945 405.524C158.2 406.203 156.707 407.48 154.5 409C145.809 414.985 131.693 411.924 125.315 410.072C124.35 409.791 124.414 408.433 125.382 408.164C131.05 406.59 142.296 402.688 146.875 395.572C147.32 394.88 147.573 394.088 147.716 393.277L184.523 184.553C184.933 182.228 184.876 179.65 183.172 178.016C179.426 174.422 172.533 174.418 168.113 174.868C167.525 174.928 167.197 173.902 167.726 173.637L175 170C184.831 166.61 195.319 169.787 195.968 169.99C195.99 169.997 196.011 170.003 196.033 170.008C198.541 170.649 200.653 172.763 201.873 174.241C202.385 174.861 203.497 174.789 203.958 174.13C205.206 172.347 207.746 169.654 212 169C215.613 168.936 217.615 171.554 218.263 172.588C218.357 172.738 218.215 172.916 218.042 172.875C216.743 172.563 212.979 171.974 210.715 174.862C210.177 175.548 210.087 176.464 210.247 177.321L255 417C255 417 258.5 439.498 273.998 443L274 443C274.036 443.008 278.291 443.943 277.094 441.2C277.037 441.07 276.703 440.813 276.583 440.735C273.367 438.654 272.789 434.862 274.95 431.7C276.588 429.304 279.16 427 283 427C288.407 427 291.882 429.9 291.522 438.075C291.51 438.355 291.469 438.637 291.404 438.91C289.87 445.291 286.727 452.021 274 453C257.236 454.29 246.655 429.038 244.436 423.194C244.274 422.767 243.615 422.736 243.363 423.117C242.751 424.045 241.67 425.387 240 426.5C234.062 430.459 224.677 428.149 221.025 427.015C220.707 426.917 220.778 426.416 221.108 426.372C223.654 426.034 228.445 424.804 229.62 420.33C230 418.5 229.62 416.92 229.62 416.92L199.098 260.501C199.077 260.394 198.923 260.393 198.902 260.501Z" fill="white"/>
<path d="M41.6363 370.096C44.421 372.482 52.5875 377.906 69 377.57C84.932 377.57 95.0889 373.583 101.062 369.915C106.341 366.673 111.376 362.482 114.772 357.301C121.088 347.666 121.784 333.562 121.86 330.57C121.87 330.184 121.863 329.791 121.847 329.405C120.26 291.028 97 293.76 97 293.76C97 293.76 85 294 84.25 310C86 328.5 99 326.3 99 326.3C104.567 325.266 104.935 321.531 104.852 320.045C104.831 319.665 104.542 319.378 104.178 319.264C101.726 318.499 104.142 317.866 104.675 317.742C104.741 317.727 104.808 317.72 104.876 317.72H105.5C108.929 317.967 109.9 322.85 109.9 322.85C109.9 322.85 111.5 326.3 109.9 333.106C109.455 335 102 352.5 76 351.9C52 351.346 53.5 334 53.5 334C53.5 326.832 58.5239 324.231 59.8417 324.015C59.9477 323.998 60.0546 323.985 60.1535 323.942C61.3098 323.449 58.8863 322.82 56 322.82C48.9946 322.82 46.0647 326.338 45.2509 327.576C45.0714 327.849 45 328.17 45 328.496C45 329.051 44.5505 329.5 43.9961 329.5H43.7843C43.3511 329.5 43 329.149 43 328.716V328.003C43 327.06 43.4554 326.175 44.2227 325.627L45.6764 324.588C46.1932 324.219 46.5 323.623 46.5 322.988V282.414C46.5 282.149 46.6053 281.895 46.7928 281.707L52.632 275.868C52.8328 275.667 52.8262 275.34 52.6176 275.147L46.8242 269.799C46.6176 269.609 46.5009 269.34 46.5025 269.059L46.9999 182.503L47 182.5C47 182.438 47.039 158.498 77 157C93.9247 157.967 96.0898 173.011 96.2139 173.999C96.2183 174.034 96.22 174.068 96.22 174.103V186.02C94.7794 197.31 86.8294 205.808 84.2841 208.271C83.8666 208.675 83.9216 209.283 84.4986 209.352C86.6173 209.602 92.6456 208.369 107.5 195C130.5 172.5 107.5 148 107.5 148C97.5 135 71.5 134.5 71.5 134.5C50.7706 134.5 43.2689 138.663 41.7882 139.644C41.595 139.773 41.3732 139.85 41.1413 139.85H40.0541C39.873 139.85 39.6952 139.801 39.5399 139.708L31.3241 134.782C31.2547 134.741 31.194 134.708 31.1194 134.677C29.7838 134.118 15.3666 128.442 1.49416 137.918C1.07309 138.205 1.32216 138.892 1.8318 138.875C5.90676 138.739 15.7138 139.22 20.1843 146.467C20.7839 147.439 20.9999 148.591 20.9999 149.733V269.04C20.9999 269.332 20.8724 269.609 20.6507 269.799L14.4254 275.135C14.1987 275.33 14.1918 275.678 14.4106 275.881L20.6804 281.703C20.8842 281.892 20.9999 282.158 20.9999 282.436V358.759C20.9999 360.246 20.8618 361.765 20.1498 363.07C16.3268 370.077 4.77461 372.251 0.560221 372.822C0.0763732 372.887 -0.0458054 373.527 0.389136 373.749C5.18838 376.197 21.5149 383.366 35 375.5C37.2029 374.215 38.8535 371.881 39.747 370.387C40.1239 369.757 41.0787 369.619 41.6363 370.096Z" fill="white"/>
<path fill-rule="evenodd" clip-rule="evenodd" d="M110 23L82 28.5L6 47L16.5 60C44.5 96.4 100.5 119.5 125 126.5C126.777 127.008 128.927 127.645 131.341 128.359L131.343 128.36L131.343 128.36L131.343 128.36L131.343 128.36L131.344 128.36C143.187 131.868 161.371 137.254 173 138.5L478.5 164C499.167 165.167 542.3 165.2 553.5 164C564.7 162.8 569.5 154.833 570 150V88L623.5 104.5C643.5 115.7 661.5 107.667 668 103L738.5 101L822 147.5C831.821 153.392 833.926 154.038 836.317 154.772C836.969 154.972 837.643 155.178 838.5 155.5C841.964 156.799 843.554 153.222 844.567 150.942L844.568 150.94L844.569 150.935C844.725 150.585 844.867 150.266 845 150C845.8 148.4 847 144.5 847 135.5V37.7085C847 27.5 845.5 25 841.5 24.5L824 21L822.368 20.6882C778.486 12.3054 737.627 4.5 707.5 4.5C677.745 -0.773093 670.688 0.479588 655.765 3.12846C650.878 3.99595 645.148 5.01319 637.5 6L473.5 8L223 13.5L155 16.5C154.6 16.5 145 16.8333 136 18L110 23ZM513.043 80.9635C510.792 80.7333 501 79.1212 501 68.5C501 53 519.5 52 519.5 52C519.5 52 529.194 52 531.879 57.2495C531.921 57.3328 532.053 57.327 532.085 57.2389C532.461 56.1926 534.158 52.4282 538.704 53.8984C538.796 53.9282 538.797 54.0612 538.705 54.0928C535.5 55.1993 535.5 58.5 535.5 58.5V89.491C535.5 89.641 535.567 89.7831 535.683 89.878L539.363 92.8878C539.435 92.9465 539.436 93.0557 539.367 93.1167L535.671 96.3506C535.562 96.4455 535.5 96.5827 535.5 96.7269V120.249C535.5 120.249 535.014 126.324 543.623 128.413C543.723 128.437 543.726 128.582 543.627 128.611C534.284 131.33 531.734 127.316 531.152 125.937C531.11 125.837 530.901 125.842 530.863 125.943C530.425 127.104 528.744 130.042 523.24 128.567C523.154 128.543 523.138 128.424 523.215 128.378C527.825 125.691 526.861 120.457 526.567 119.252C526.545 119.162 526.429 119.15 526.388 119.233C525.605 120.821 520.721 130 512.5 130C508.5 130 496.5 126 496 111.5C496 103.357 501.243 98.7667 507.598 93.2027C512.17 89.2002 517.316 84.6941 521.5 78C521.5 78 523.5 75 519.5 74C518.851 73.8377 518.465 74.0441 518.24 74.397C518.179 74.4935 518.117 74.5923 518.055 74.6917C517.488 75.6027 516.886 76.5704 515.854 76.3853C514.311 76.1087 512.5 75.2951 512.5 73C512.5 68.5 518 68.5 518 68.5C518 68.5 523.708 68.5 525.481 73.623C526.224 75.7691 525.664 78.1151 524.628 80.1359C522.136 84.9943 517.921 90.2607 513.86 95.3343L513.86 95.3344L513.859 95.3349C507.83 102.868 502.141 109.975 502.938 114.692C502.954 114.789 503.085 114.795 503.124 114.706C504.974 110.566 509.313 110.458 510.298 110.489C510.381 110.492 510.422 110.585 510.367 110.648C509.408 111.741 503.846 118.54 513.5 119C517.869 119.208 523.652 117.598 526.731 109.267C526.917 108.763 527 108.226 527 107.689V96.7071C527 96.5745 526.947 96.4473 526.854 96.3536L523.61 93.1097C523.55 93.0497 523.551 92.952 523.613 92.8941L526.841 89.8762C526.943 89.7817 527 89.6494 527 89.511V67.5C526.5 59.5 518.5 59.5 518.5 59.5C518.5 59.5 508.5 59.5 508 70C508.414 77.0395 511.915 79.9638 513.105 80.7608C513.195 80.8207 513.15 80.9745 513.043 80.9635ZM483.5 47C488.194 47 492 43.1944 492 38.5C492 33.8056 488.194 30 483.5 30C478.806 30 475 33.8056 475 38.5C475 43.1944 478.806 47 483.5 47ZM479.5 61.5V91.7427C479.5 91.9042 479.422 92.0557 479.291 92.1496L476.171 94.3779C476.087 94.4378 476.087 94.5622 476.171 94.6221L479.291 96.8504C479.422 96.9443 479.5 97.0958 479.5 97.2573V125.5C479.5 125.5 479.016 129.369 471.866 129.497C471.765 129.499 471.728 129.634 471.816 129.684C478.616 133.52 484.115 128.82 484.903 128.092C484.953 128.046 485.032 128.06 485.067 128.119C485.44 128.744 487.417 131.57 491.961 130.181C492.068 130.148 492.044 129.983 491.932 129.972C489.5 129.718 489.5 127.843 489.5 127.843V97.2573C489.5 97.0958 489.578 96.9443 489.709 96.8504L492.829 94.6221C492.913 94.5622 492.913 94.4378 492.829 94.3779L489.709 92.1496C489.578 92.0557 489.5 91.9042 489.5 91.7427V58.3116C489.5 58.3116 489.5 55.7722 492.075 55.5201C492.18 55.5098 492.211 55.3615 492.114 55.3192C487.892 53.474 485.929 57.0803 485.564 57.8569C485.532 57.9235 485.445 57.9416 485.392 57.8898C484.597 57.1017 479.439 52.437 471.395 55.3515C471.296 55.3874 471.316 55.5337 471.421 55.5462C479.5 56.5186 479.5 61.5 479.5 61.5ZM430 61V91.7658C430 91.9142 429.934 92.0549 429.82 92.1499L427.126 94.3949C427.058 94.4513 427.054 94.5538 427.116 94.6161L429.854 97.3536C429.947 97.4473 430 97.5745 430 97.7071V124C430 124 430 129.414 422.863 129.5C422.762 129.501 422.724 129.638 422.811 129.689C429.942 133.919 434.216 128.594 434.902 127.641C434.948 127.578 435.045 127.586 435.083 127.653C435.591 128.546 438.41 132.927 443.193 129.715C443.278 129.658 443.232 129.523 443.13 129.529C438.5 129.79 438.5 125.807 438.5 125.807V97.7071C438.5 97.5745 438.553 97.4473 438.646 97.3536L441.384 94.6161C441.446 94.5538 441.442 94.4513 441.374 94.3949L438.68 92.1499C438.566 92.0549 438.5 91.9142 438.5 91.7658V78.5C438.5 78.5 438 65 452 63C459 63 462.5 65 462 72C461.396 78.6402 458.684 81.3136 457.527 82.1656C457.435 82.233 457.498 82.4188 457.61 82.3971C460.052 81.9228 469 79.5668 469 70.5C469 63.5 465 54.5 451 54.5C442.765 54.582 439.658 58.5234 439.097 59.3492C439.052 59.4145 438.953 59.4151 438.913 59.3471C438.212 58.1636 433.236 50.6565 422.84 56.3116C422.749 56.3607 422.783 56.5017 422.886 56.5036C430.484 56.6462 430 61 430 61ZM376.5 69C376.5 79.6212 386.293 81.2333 388.543 81.4635C388.65 81.4745 388.695 81.3207 388.606 81.2608C387.415 80.4638 383.914 77.5395 383.5 70.5C384 60 394 60 394 60C394 60 402 60 402.5 68V90.011C402.5 90.1494 402.443 90.2817 402.342 90.3762L399.114 93.3941C399.052 93.452 399.05 93.5497 399.11 93.6097L402.354 96.8536C402.448 96.9473 402.5 97.0745 402.5 97.2071V108.189C402.5 108.726 402.417 109.263 402.231 109.767C399.152 118.098 393.369 119.708 389 119.5C379.346 119.04 384.908 112.241 385.867 111.148C385.922 111.085 385.882 110.992 385.798 110.989C384.813 110.958 380.475 111.066 378.625 115.206C378.585 115.295 378.454 115.289 378.438 115.192C377.641 110.475 383.331 103.367 389.36 95.8343C393.421 90.7607 397.636 85.4943 400.128 80.6359C401.164 78.6151 401.724 76.2691 400.981 74.123C399.208 69 393.5 69 393.5 69C393.5 69 388 69 388 73.5C388 75.7951 389.811 76.6087 391.354 76.8853C392.387 77.0704 392.989 76.1027 393.556 75.1917L393.557 75.1898L393.568 75.1723C393.597 75.1252 393.626 75.0783 393.655 75.0318C393.684 74.9865 393.712 74.9415 393.74 74.897C393.965 74.5441 394.351 74.3377 395 74.5C399 75.5 397 78.5 397 78.5C392.816 85.1941 387.67 89.7002 383.098 93.7027C376.743 99.2667 371.5 103.857 371.5 112C372 126.5 384 130.5 388 130.5C396.221 130.5 401.105 121.321 401.888 119.733C401.929 119.65 402.045 119.662 402.067 119.752C402.361 120.957 403.326 126.191 398.716 128.878C398.638 128.924 398.654 129.043 398.74 129.067C404.244 130.542 405.925 127.604 406.363 126.443C406.402 126.342 406.61 126.337 406.652 126.437C407.234 127.816 409.784 131.83 419.128 129.111C419.226 129.082 419.224 128.937 419.124 128.913C410.514 126.824 411 120.749 411 120.749V97.2269C411 97.0827 411.062 96.9455 411.171 96.8506L414.867 93.6167C414.937 93.5557 414.935 93.4465 414.863 93.3878L411.184 90.378C411.068 90.2831 411 90.141 411 89.991V59C411 59 411 55.6993 414.205 54.5928C414.297 54.5612 414.296 54.4282 414.204 54.3984C409.658 52.9282 407.961 56.6926 407.585 57.7389C407.554 57.827 407.422 57.8328 407.379 57.7495C404.694 52.5 395 52.5 395 52.5C395 52.5 376.5 53.5 376.5 69ZM356 33V91.7426C356 91.9041 355.922 92.0556 355.791 92.1495L352.666 94.3817C352.584 94.4404 352.582 94.562 352.662 94.6231L355.803 97.0104C355.927 97.1049 356 97.2522 356 97.4084V124.399C356 124.399 356 129.347 347.879 129.974C347.777 129.982 347.748 130.122 347.841 130.165C355.023 133.527 360.238 128.732 361.04 127.929C361.092 127.876 361.18 127.894 361.211 127.961C361.563 128.713 363.406 132.117 367.584 131.113C367.687 131.088 367.68 130.937 367.578 130.911C365 130.242 365 127.817 365 127.817V97.4084C365 97.2522 365.073 97.1049 365.198 97.0104L368.338 94.6231C368.419 94.562 368.417 94.4404 368.335 94.3817L365.21 92.1495C365.078 92.0556 365 91.9041 365 91.7426V28.723C365 28.723 365 26.1716 367.906 25.3035C367.999 25.2758 368.005 25.1455 367.913 25.1145C364.213 23.8662 361.035 27.854 360.478 28.6037C360.436 28.6607 360.351 28.6627 360.309 28.6052C359.678 27.7365 355.435 22.451 347.792 25.8663C347.702 25.9061 347.719 26.0397 347.815 26.0582C356 27.6368 356 33 356 33ZM305 89.9416V66.3371C305 66.3371 306 55 325.5 54C342 55 343 69 343 69C343 69 344 80 329.5 83.5C314 88 317 95 317 95C317 95 323 91 323.5 97C323.5 101 317 99 317 99C315.401 98.6003 314.122 97.6232 313.673 97.2474C313.606 97.1912 313.5 97.2397 313.5 97.3272V114.207C313.5 114.207 316.612 110.021 319.902 110.383C320.15 110.41 320.196 110.727 320 110.881C311.525 117.548 321.376 121.17 325.422 122.305C326.464 122.597 327.543 122.711 328.618 122.583C331.928 122.189 339.229 120.474 340 113C340.471 108.293 339.169 107.574 336.511 107.923C336.231 107.96 336.049 108.236 336.09 108.515C337.101 115.309 329 111.369 329 106C329 99 335 100 335 100C335 100 346 100 345 113.5C343 127.5 333 129.5 325 130C313.772 130 308.316 124.228 306.162 121.046C305.288 119.756 305 118.199 305 116.64V95.64C305 95.4943 304.936 95.3559 304.826 95.2609L301.655 92.5331C301.578 92.4671 301.587 92.3456 301.673 92.2921L304.764 90.3659C304.911 90.2746 305 90.1142 305 89.9416ZM313.5 89.8329V75.9577C313.5 75.3201 313.544 74.6859 313.685 74.0639C314.377 71.0051 317.27 61.5 326.5 61.5C335 62 335.5 67.5 335.5 68.5C335.223 75.7135 330.635 78.0006 325.409 80.6055C321.303 82.6528 316.802 84.8963 313.691 89.8817C313.638 89.9678 313.5 89.9344 313.5 89.8329ZM275.888 93.3955L272.659 90.3792C272.557 90.2846 272.5 90.1523 272.5 90.0138V73.5714L285.43 63.8078C286.124 63.2836 286.97 62.9876 287.834 63.0897C289.985 63.3439 293.613 64.3181 289.833 68.0516C288.476 69.3912 287.338 71.1787 287.922 72.9937C289.209 77 293 77 293 77C293 77 297.5 77 298.5 69C298.5 62.8005 295.084 58.9924 289.38 57.8582C286.885 57.3618 284.368 58.2469 282.243 59.648L272.5 66.0744V36C272.5 36 272.961 34.1558 276.54 34.452C276.647 34.4608 276.692 34.3159 276.598 34.2631C271.056 31.1399 268.552 35.7856 268.083 36.8081C268.048 36.885 267.936 36.892 267.89 36.8206C267.163 35.6807 262.815 29.6254 254.846 33.8132C254.754 33.8612 254.788 34.0029 254.891 34.0062C262 34.2342 262 40.6784 262 40.6784L262 73L259.289 74.5494C258.766 74.8481 258.197 75.0811 257.595 75.0486C256.203 74.9735 253.543 74.2098 252.083 69.761C252.054 69.6729 251.928 69.6674 251.892 69.753C248.95 76.8039 253.867 79.4807 254.838 79.9297C254.909 79.9624 254.926 80.0612 254.868 80.1138C254.175 80.7486 251.111 84.0264 254.739 89.6117C254.798 89.7019 254.947 89.6478 254.936 89.5407C254.59 85.8719 258.238 83.3816 260.424 82.2303C260.953 81.9512 261.484 81.6701 262 81.367V90.0138C262 90.1523 261.943 90.2846 261.841 90.3792L258.612 93.3955C258.55 93.4529 258.548 93.5495 258.607 93.6097L261.858 96.9521C261.949 97.0454 262 97.1705 262 97.3008V117.245C262 118.404 262.207 119.563 262.712 120.606C270.775 137.25 291.105 133.065 294.5 119C295.524 114.756 295.518 113.715 295.504 111.098L295.503 110.911C295.5 110.305 295.459 109.696 295.322 109.106C293.643 101.889 287.22 100.704 285.785 100.528C285.691 100.517 285.643 100.63 285.713 100.696C286.329 101.278 288.126 103.096 289.005 105.229C289.597 106.665 289.682 108.272 289.716 109.825C289.737 110.754 289.708 111.978 289.567 113.528C289.526 113.981 289.434 114.438 289.283 114.867C285.893 124.492 276.761 123.587 273.324 116.443C272.639 115.019 272.5 113.411 272.5 111.831V97.3008C272.5 97.1705 272.551 97.0454 272.642 96.9521L275.893 93.6097C275.952 93.5495 275.95 93.4529 275.888 93.3955ZM204 61C204 61 204 56.1541 195.413 56.0036C195.308 56.0017 195.275 55.8579 195.368 55.811C204.759 51.0893 209.233 56.4516 209.909 57.3705C209.953 57.4307 210.045 57.4252 210.086 57.3625C210.635 56.512 213.761 52.121 217.717 55.7299C217.794 55.7994 217.725 55.9268 217.625 55.9045C215.284 55.385 214.423 56.6739 214.133 57.3781C214.021 57.6507 214 57.9482 214 58.2429V91.7658C214 91.9142 214.066 92.0549 214.18 92.1499L216.865 94.3876C216.936 94.4467 216.937 94.555 216.868 94.6157L214.17 96.9795C214.062 97.0745 214 97.2115 214 97.3556V114C214 121.907 228.653 128.349 231.408 113.049C231.472 112.693 231.5 112.318 231.5 111.956V105.5C231.5 105.5 231.5 101.638 227.705 100.555C227.624 100.532 227.605 100.423 227.674 100.376C230.38 98.5398 233.06 101.169 234.473 102.998C234.489 103.019 234.644 102.922 234.631 102.899L231.5 97.1289L228.632 94.6157C228.563 94.555 228.564 94.4467 228.635 94.3876L231.32 92.1499C231.434 92.0549 231.5 91.9142 231.5 91.7658V61.5C231.5 61.5 230.043 56.6444 223.302 57.4602C223.206 57.4717 223.149 57.3522 223.219 57.2856C230.113 50.6711 237.358 56.7631 238.378 57.6867C238.435 57.7383 238.525 57.7103 238.55 57.6374C238.844 56.75 240.526 52.6592 245.62 56.2243C245.708 56.286 245.65 56.4265 245.544 56.4069C241.5 55.6565 241.5 57.7771 241.5 57.7771V91.6058C241.5 91.7625 241.573 91.9102 241.699 92.0047L244.841 94.38C244.921 94.4401 244.921 94.5597 244.841 94.6196L241.7 96.9789C241.574 97.0733 241.5 97.2214 241.5 97.3787V123.994C241.5 124.29 241.511 124.585 241.595 124.868C241.949 126.057 243.557 129.283 250.581 129.02C250.686 129.016 250.731 129.15 250.638 129.2C248.395 130.4 236.395 136.217 234.037 124.688C234.03 124.654 233.978 124.647 233.972 124.68C232.655 132.093 211.138 139.751 204.094 117.798C204.033 117.606 204 117.398 204 117.196V97.3787C204 97.2214 203.926 97.0733 203.8 96.9789L200.664 94.623C200.583 94.5621 200.584 94.4399 200.667 94.381L203.791 92.1496C203.922 92.0557 204 91.9042 204 91.7427V61ZM170.904 131.771C164.467 131.902 160.813 130.089 159.11 128.888C158.51 128.464 157.53 128.62 157.096 129.213C156.674 129.79 156.101 130.422 155.408 130.826C151.401 133.165 144.458 131.465 141.032 130.389C140.527 130.23 140.609 129.471 141.128 129.366C143.184 128.952 146.23 128.046 147.934 126.147C148.926 125.041 149.027 123.46 149.027 121.974V88.6223C149.027 88.3443 148.911 88.0789 148.708 87.8897L146.247 85.6034C146.028 85.4002 146.035 85.0519 146.262 84.8575L148.678 82.7852C148.899 82.5952 149.027 82.3179 149.027 82.0261V28.8085C149.027 27.6671 148.843 26.4851 148.101 25.6178C146.258 23.4633 143.233 22.9829 141.294 22.9162C140.785 22.8987 140.545 22.1988 140.984 21.9404C146.863 18.4845 152.716 20.6273 153.577 20.9751C153.652 21.0054 153.72 21.0412 153.789 21.0828L157.347 23.2174C157.503 23.3106 157.681 23.3598 157.862 23.3598H158.011C158.243 23.3598 158.467 23.2816 158.666 23.1628C159.64 22.5825 163.202 20.92 172.043 20.92C172.043 20.92 183.893 21.148 188.451 27.0766C188.451 27.0766 198.933 38.2497 188.451 48.5106C182.727 53.6649 179.879 54.8636 178.551 55.0421C177.976 55.1195 177.88 54.5663 178.283 54.1482C179.72 52.6571 182.718 49.0526 183.31 44.4152V39.0099C183.31 38.9743 183.308 38.9437 183.304 38.9084C183.219 38.2761 182.147 31.6153 174.55 31.181C160.916 31.8631 160.877 42.7476 160.877 42.8098L160.877 42.813L160.651 82.0448C160.65 82.3258 160.766 82.5945 160.973 82.7851L163.229 84.8693C163.438 85.0619 163.444 85.3892 163.244 85.59L160.942 87.8936C160.754 88.0811 160.649 88.3353 160.649 88.6005V106.85C160.649 107.158 160.5 107.446 160.25 107.625L159.611 108.082C159.261 108.332 159.054 108.736 159.054 109.165V109.491C159.054 109.688 159.214 109.848 159.411 109.848H159.507C159.76 109.848 159.965 109.643 159.965 109.391C159.965 109.242 159.998 109.095 160.08 108.971C160.45 108.407 161.786 106.802 164.979 106.802C166.215 106.802 167.265 107.056 166.949 107.273C166.886 107.316 166.81 107.331 166.734 107.346C166.703 107.352 166.673 107.358 166.643 107.366C165.936 107.552 163.839 108.773 163.839 111.901C163.839 111.901 163.156 119.811 174.094 120.064C185.944 120.337 189.342 112.357 189.544 111.493C190.274 108.389 189.544 106.816 189.544 106.816C189.544 106.816 189.102 104.589 187.539 104.476H187.31C187.242 104.476 187.175 104.483 187.109 104.499C186.834 104.569 186.113 104.785 186.622 105.056C186.958 105.235 187.268 105.496 187.242 105.876C187.188 106.668 186.758 107.984 184.577 108.389C184.577 108.389 178.652 109.392 177.854 100.956C178.196 93.659 183.665 93.5495 183.665 93.5495C183.665 93.5495 193.784 92.3604 194.924 108.626C194.992 109.588 194.979 110.557 194.871 111.516C194.698 113.05 194.314 115.607 193.5 118.182C191.726 123.795 186.895 128.327 181.321 130.22C178.699 131.11 175.279 131.771 170.904 131.771Z" fill="white"/>
</svg>
