<svg width="841" height="165" viewBox="0 0 841 165" fill="none" xmlns="http://www.w3.org/2000/svg">
<path d="M76 27.6567L104 22.1567L130 17.1567C139 15.99 148.6 15.6567 149 15.6567L217 12.6567L467.5 7.15667L631.5 5.15668C662.5 1.15668 662 -3.34334 701.5 3.65667C731.627 3.65667 772.486 11.4621 816.368 19.8449L818 20.1567L835.5 23.6567C839.5 24.1567 841 26.6567 841 36.8652V134.657C841 143.657 839.8 147.557 839 149.157C838 151.157 836.5 156.157 832.5 154.657C828.5 153.157 828.5 154.157 816 146.657L733.701 100.825C732.915 100.388 732.025 100.17 731.126 100.196L662.612 102.139C662.213 102.151 661.832 102.28 661.503 102.505C654.641 107.19 637.124 114.536 617.688 103.761C617.564 103.693 617.432 103.636 617.297 103.594L565.295 87.556C564.652 87.3576 564 87.8385 564 88.5116V149.157C563.5 153.99 558.7 161.957 547.5 163.157C536.3 164.357 493.167 164.323 472.5 163.157L167 137.657C153 136.157 129.5 128.657 119 125.657C94.5 118.657 38.5 95.5567 10.5 59.1567L0 46.1567L76 27.6567Z" fill="white"/>
</svg>
